<?xml version="1.0" encoding="UTF-8" standalone="no"?>
<svg
   height="512pt"
   viewBox="0 0 512 512"
   width="512pt"
   version="1.1"
   id="svg8"
   sodipodi:docname="instagram.svg"
   inkscape:version="1.1 (ce6663b3b7, 2021-05-25)"
   xmlns:inkscape="http://www.inkscape.org/namespaces/inkscape"
   xmlns:sodipodi="http://sodipodi.sourceforge.net/DTD/sodipodi-0.dtd"
   xmlns="http://www.w3.org/2000/svg"
   xmlns:svg="http://www.w3.org/2000/svg">
  <defs
     id="defs12" />
  <sodipodi:namedview
     id="namedview10"
     pagecolor="#ffffff"
     bordercolor="#666666"
     borderopacity="1.0"
     inkscape:pageshadow="2"
     inkscape:pageopacity="0.0"
     inkscape:pagecheckerboard="0"
     inkscape:document-units="pt"
     showgrid="false"
     inkscape:zoom="0.38964844"
     inkscape:cx="419.60902"
     inkscape:cy="293.85464"
     inkscape:window-width="1360"
     inkscape:window-height="704"
     inkscape:window-x="0"
     inkscape:window-y="27"
     inkscape:window-maximized="1"
     inkscape:current-layer="svg8" />
  <path
     d="m 318.91545,266.40909 c 0,35.18591 -28.52703,63.71294 -63.71294,63.71294 -35.1859,0 -63.71293,-28.52703 -63.71293,-63.71294 0,-35.1859 28.52703,-63.71293 63.71293,-63.71293 35.18591,0 63.71294,28.52703 63.71294,63.71293 z m 0,0"
     id="path2"
     style="fill:#ffffff;stroke-width:1.41584" />
  <path
     d="M 362.80658,73.85446 H 147.59845 c -46.8445,0 -84.950576,38.10607 -84.950576,84.95057 v 215.20813 c 0,46.84448 38.106076,84.95057 84.950576,84.95057 h 215.20813 c 46.84448,0 84.95057,-38.10609 84.95057,-84.95057 V 158.80503 c 0,-46.8445 -38.10609,-84.95057 -84.95057,-84.95057 z M 255.20251,372.5973 c -58.55285,0 -106.18822,-47.63535 -106.18822,-106.18821 0,-58.55285 47.63537,-106.18822 106.18822,-106.18822 58.55286,0 106.18822,47.63537 106.18822,106.18822 0,58.55286 -47.63536,106.18821 -106.18822,106.18821 z m 121.7625,-206.71306 c -11.73049,0 -21.23764,-9.50717 -21.23764,-21.23764 0,-11.73047 9.50715,-21.23764 21.23764,-21.23764 11.73047,0 21.23763,9.50717 21.23763,21.23764 0,11.73047 -9.50716,21.23764 -21.23763,21.23764 z m 0,0"
     id="path4"
     style="fill:#ffffff;stroke-width:1.41584" />
</svg>
